<?xml version="1.0" standalone="no"?><!DOCTYPE svg PUBLIC "-//W3C//DTD SVG 1.1//EN" "http://www.w3.org/Graphics/SVG/1.1/DTD/svg11.dtd">
<svg t="1647593918133" class="icon" viewBox="0 0 1024 1024" version="1.1" xmlns="http://www.w3.org/2000/svg" p-id="5360"
     width="64" height="64"><defs><style type="text/css"></style></defs><path d="M906.2 546.5c-90.1 161.8-274 320.3-394.3 383.5-120.5-63.2-304.4-221.7-394.5-383.5h169.3c8.3 0 15.9-3.3 21.7-8.6l78.8-63 94 190.7c8.2 16.5 27.6 23 43.6 14.7 8.7-4.6 14.6-12.8 16.7-22L629 386.8l76.2 142.5c5.9 11.1 16.9 17.4 28.4 17.4h172.8v-0.2zM511.9 175.2C348.9 2.7 64 122.2 64 371.9c0 34.6 8 71 22.1 108h189.8l102.9-82.1c14.1-11.3 34.3-8.6 45.2 5.9 1.3 1.7 2.4 3.5 3.2 5.2L504 564.4l87.3-270.7c5.6-17.4 23.9-27 40.8-21.2 8 2.7 14.3 8.4 18.2 15.7l102.5 191.9H938c14.1-36.8 22.1-73.3 22.1-108-0.3-249.9-285.4-369.4-448.2-196.9z" p-id="5361" fill="#0d72ff"></path></svg>